# xmcd
#
# Track frame offsets: 
#        150
#        18837
#        31435
#        42312
#        64885
#        81987
#        91510
#        104710
#        116185
#        130430
#        143262
#        154590
#        169430
#        182557
#        198385
#
# Disc length: 2785 seconds
#
# Revision: 7
# Processed by: cddbd v1.5.2PL0 Copyright (c) Steve Scherf et al.
# Submitted via: ExactAudioCopy v0.99pb4
#
DISCID=ca0adf0f
DTITLE=Various Artist - Chicago The Blues Today - CD 1
DYEAR=1966
DGENRE=Blues
TTITLE0=The Junior Wells Chicago Blues Band - Help Me (A Tribute to So
TTITLE0=nny Boy Williamson)
TTITLE1=The Junior Wells Chicago Blues Band - It Hurts Me Too (When Th
TTITLE1=ings Go Wrong)
TTITLE2=The Junior Wells Chicago Blues Band - Messin' With The Kid
TTITLE3=The Junior Wells Chicago Blues Band - Vietcong Blues
TTITLE4=The Junior Wells Chicago Blues Band - All Night Long
TTITLE5=J. B. Hutto and His Hawks - Going Ahead
TTITLE6=J. B. Hutto and His Hawks - Please Help
TTITLE7=J. B. Hutto and His Hawks - Too Much Alcohol
TTITLE8=J. B. Hutto and His Hawks - Married Woman Blues
TTITLE9=J. B. Hutto and His Hawks - That's The Truth
TTITLE10=Otis Spann's South Side Piano - Marie
TTITLE11=Otis Spann's South Side Piano - Burning Fire
TTITLE12=Otis Spann's South Side Piano - S.P. Blues
TTITLE13=Otis Spann's South Side Piano - Sometime I Wonder
TTITLE14=Otis Spann's South Side Piano - Spann's Stomp
EXTD=
EXTT0=
EXTT1=
EXTT2=
EXTT3=
EXTT4=
EXTT5=
EXTT6=
EXTT7=
EXTT8=
EXTT9=
EXTT10=
EXTT11=
EXTT12=
EXTT13=
EXTT14=
PLAYORDER=
